<svg width="474" height="53" viewBox="0 0 474 53" xmlns="http://www.w3.org/2000/svg"><title>ATTRACTI VF</title><path d="M32.926 38.189H12.848L7.624 49.501H0L23.206 0l22.386 49.5h-7.746l-4.92-11.311zm-2.886-6.606l-6.955-15.837-7.29 15.837H30.04zm42.458-22.05V49.5h-7.077V9.532H54.638V2.926h28.613v6.606H72.498zm40.727 0V49.5h-7.077V9.532H95.365V2.926h28.613v6.606h-10.753zm43.673 20.12l14.52 19.848h-8.658l-13.395-19.064h-1.275V49.5h-7.078V2.926h8.293c6.196 0 10.671 1.156 13.425 3.469 3.037 2.574 4.556 5.973 4.556 10.196 0 3.298-.952 6.133-2.855 8.506s-4.414 3.892-7.533 4.555zm-8.808-5.34h2.247c6.703 0 10.054-2.544 10.054-7.632 0-4.766-3.26-7.149-9.78-7.149h-2.521v14.781zm68.64 13.876h-20.077l-5.224 11.312h-7.624L207.01 0l22.385 49.5h-7.745l-4.92-11.311zm-2.885-6.606l-6.956-15.837-7.29 15.837h14.246zm64.6-26.153v8.325c-4.09-3.398-8.322-5.098-12.696-5.098-4.82 0-8.88 1.72-12.18 5.159-3.32 3.418-4.981 7.601-4.981 12.548 0 4.887 1.66 9.01 4.981 12.368 3.321 3.358 7.391 5.037 12.21 5.037 2.491 0 4.607-.402 6.349-1.206.972-.402 1.98-.945 3.022-1.629a35.7 35.7 0 0 0 3.296-2.474v8.477c-4.05 2.272-8.302 3.408-12.757 3.408-6.703 0-12.424-2.322-17.162-6.968-4.718-4.685-7.077-10.336-7.077-16.952 0-5.933 1.974-11.222 5.923-15.867 4.86-5.691 11.147-8.537 18.862-8.537 4.212 0 8.282 1.136 12.21 3.409zm32.587 4.102v39.969h-7.077V9.532h-10.783V2.926h28.613v6.606h-10.753zm34.865-6.606v46.575h-7.077V2.926h7.077zm54.268 0l12.97 32.277 13.152-32.277h7.746L412.983 53 392.42 2.926h7.745zM474 9.532h-16.341v11.191h15.764v6.607h-15.764V49.5h-7.078V2.927H474v6.606z" fill="#FFF" fill-rule="evenodd"/></svg>