<svg width="188" height="21" viewBox="0 0 188 21" xmlns="http://www.w3.org/2000/svg"><title>ATTRACTI VF Copy</title><path d="M13.053 15.158h-7.96l-2.07 4.49H0L9.2 0l8.874 19.647h-3.07l-1.951-4.49zm-1.144-2.623L9.15 6.25l-2.89 6.285h5.648zM28.74 3.783v15.864h-2.806V3.783H21.66V1.161h11.343v2.622h-4.262zm16.145 0v15.864H42.08V3.783h-4.275V1.161h11.343v2.622h-4.263zM62.2 11.77l5.755 7.878h-3.431l-5.31-7.566h-.506v7.566h-2.806V1.161h3.287c2.457 0 4.23.46 5.323 1.377 1.204 1.022 1.806 2.37 1.806 4.047 0 1.31-.378 2.434-1.132 3.376-.755.942-1.75 1.545-2.986 1.808zm-3.492-2.12h.89c2.658 0 3.986-1.01 3.986-3.03 0-1.89-1.292-2.837-3.877-2.837h-1V9.65zm27.211 5.508h-7.96l-2.07 4.49h-3.023L82.066 0l8.874 19.647h-3.07l-1.951-4.49zm-1.144-2.623L82.018 6.25l-2.89 6.285h5.647zm25.61-10.38V5.46c-1.622-1.35-3.3-2.024-5.033-2.024-1.91 0-3.52.683-4.829 2.048-1.316 1.356-1.975 3.017-1.975 4.98 0 1.94.659 3.576 1.975 4.909 1.317 1.333 2.93 2 4.84 2 .988 0 1.827-.16 2.517-.48.386-.16.785-.375 1.199-.646a14.09 14.09 0 0 0 1.306-.982v3.365c-1.605.902-3.291 1.353-5.057 1.353-2.657 0-4.925-.922-6.804-2.766-1.87-1.86-2.805-4.103-2.805-6.729 0-2.355.782-4.454 2.348-6.298 1.926-2.258 4.419-3.388 7.477-3.388 1.67 0 3.284.451 4.841 1.353zm12.918 1.628v15.864h-2.805V3.783h-4.275V1.161h11.343v2.622h-4.263zm13.822-2.622v18.486h-2.806V1.161h2.806zm21.514 0l5.141 12.811 5.214-12.81h3.07l-8.344 19.874-8.152-19.875h3.07zm29.27 2.622h-6.478v4.442h6.25v2.622h-6.25v8.8h-2.806V1.161h9.284v2.622z" fill-rule="evenodd"/></svg>