<svg width="89" height="14" viewBox="0 0 89 14" xmlns="http://www.w3.org/2000/svg"><title>Switzerland Copy</title><path d="M8.266 2.672L7.07 3.812c-.567-.833-1.218-1.25-1.953-1.25-.531 0-.971.165-1.32.493a1.62 1.62 0 0 0-.524 1.234c0 .396.12.737.36 1.024.12.135.295.289.527.46.232.172.522.362.871.57 1.037.605 1.73 1.152 2.078 1.641.355.495.532 1.144.532 1.946 0 1.041-.344 1.885-1.032 2.53-.677.647-1.57.97-2.68.97-.895 0-1.653-.193-2.273-.578a3.853 3.853 0 0 1-.875-.754A6.775 6.775 0 0 1 0 10.968l1.36-.921c.37.65.731 1.099 1.085 1.344.354.244.815.367 1.383.367.63 0 1.124-.167 1.48-.5.357-.334.536-.807.536-1.422 0-.422-.13-.779-.39-1.07a3.488 3.488 0 0 0-.583-.508 12.702 12.702 0 0 0-.98-.633c-.907-.536-1.54-1.047-1.899-1.531-.344-.485-.515-1.091-.515-1.82 0-.975.338-1.782 1.015-2.422.677-.646 1.531-.97 2.563-.97.672 0 1.244.136 1.718.407.485.27.982.732 1.493 1.383zm12.472 3.164l-4.735 8.133-1.484-4.75-2.633 4.75-2.672-8.133h1.82l1.297 4.492 2.625-4.695 1.407 4.695 2.414-4.492h1.96zm3.948-3.5c0 .25-.091.466-.273.648a.895.895 0 0 1-.657.274.908.908 0 0 1-.664-.281.975.975 0 0 1-.273-.68c0-.255.088-.471.265-.649a.886.886 0 0 1 .649-.273c.255 0 .476.096.664.29a.9.9 0 0 1 .289.67zm-.54 3.5l-.905 7.36h-1.727l.906-7.36h1.727zm4.426 1.601l-.711 5.758h-1.727l.711-5.758h-.976l.195-1.601h.977l.422-3.414h1.726l-.422 3.414h1.594l-.195 1.601h-1.594zm9.417 4.157l-.195 1.601H30.23l4.93-5.758h-3.695l.195-1.601h6.938l-4.961 5.758h4.351zm3.511-1.461c0 .541.188.987.563 1.336.38.349.864.523 1.453.523.807 0 1.427-.302 1.86-.906l1.288.71c-.448.605-.909 1.027-1.383 1.267-.479.244-1.078.367-1.797.367-1.14 0-2.049-.336-2.726-1.008-.677-.672-1.016-1.57-1.016-2.695 0-1.178.373-2.162 1.117-2.954.74-.786 1.675-1.18 2.805-1.18 1.094 0 1.956.355 2.586 1.063.64.714.961 1.67.961 2.867 0 .125-.008.329-.023.61H41.5zm3.961-1.39c-.182-1.136-.81-1.704-1.883-1.704-1.015 0-1.677.568-1.984 1.703h3.867zm6.245-2.907l-.078.633c.584-.552 1.172-.828 1.766-.828.52 0 .995.19 1.422.57l-1.102 1.422c-.318-.271-.635-.406-.953-.406-.219 0-.411.043-.578.128a1.165 1.165 0 0 0-.434.407 2.51 2.51 0 0 0-.304.715c-.081.291-.145.64-.192 1.046l-.453 3.672h-1.726l.906-7.36h1.726zM59.053 0l-1.617 13.195H55.71L57.334 0h1.72zm9.285 5.836l-.907 7.36h-1.726l.101-.798c-.74.646-1.505.97-2.296.97-.974 0-1.769-.332-2.383-.993-.615-.661-.922-1.518-.922-2.57 0-1.214.351-2.209 1.055-2.985.713-.776 1.627-1.164 2.742-1.164.526 0 .974.086 1.343.258.375.172.758.469 1.149.89l.117-.968h1.727zm-2.102 3.469c0-.651-.187-1.18-.562-1.586-.375-.412-.86-.617-1.454-.617-.645 0-1.187.252-1.625.757-.437.51-.656 1.136-.656 1.875 0 .646.182 1.175.547 1.586.365.412.833.617 1.406.617.636 0 1.185-.257 1.649-.773a2.722 2.722 0 0 0 .695-1.86zm6.597-3.47l-.078.68c.682-.572 1.372-.859 2.07-.859.719 0 1.294.2 1.727.602.422.4.633.948.633 1.64 0 .375-.032.823-.094 1.344l-.492 3.953h-1.72l.532-4.328a6.636 6.636 0 0 0 .055-.765c0-.667-.36-1-1.078-1a1.7 1.7 0 0 0-1.141.406c-.26.213-.453.474-.578.781a2.975 2.975 0 0 0-.172.574 9.836 9.836 0 0 0-.125.785l-.437 3.547h-1.727l.906-7.36h1.719zM88.406 0l-1.625 13.195h-1.718l.093-.789c-.427.38-.796.638-1.109.774-.307.125-.687.187-1.14.187-1.032 0-1.876-.341-2.532-1.023-.656-.688-.984-1.573-.984-2.656 0-1.157.36-2.118 1.078-2.883.719-.766 1.622-1.149 2.71-1.149.558 0 1.027.097 1.407.29.396.197.81.533 1.242 1.007L86.68 0h1.726zm-2.843 9.195c0-.625-.193-1.13-.578-1.515-.386-.386-.891-.578-1.516-.578-.677 0-1.237.252-1.68.757-.442.506-.664 1.144-.664 1.914 0 .651.19 1.175.57 1.57.38.391.886.587 1.516.587.656 0 1.211-.266 1.664-.797.459-.521.688-1.167.688-1.938z" fill="#FFF" fill-rule="evenodd" opacity=".704"/></svg>