<?xml version="1.0" encoding="UTF-8" standalone="no"?>
<svg width="474px" height="53px" viewBox="0 0 474 53" version="1.1" xmlns="http://www.w3.org/2000/svg" xmlns:xlink="http://www.w3.org/1999/xlink">
    <!-- Generator: Sketch 3.8.3 (29802) - http://www.bohemiancoding.com/sketch -->
    <title>ATTRACTI VF</title>
    <desc>Created with Sketch.</desc>
    <defs></defs>
    <g id="Page-1" stroke="none" stroke-width="1" fill="none" fill-rule="evenodd">
        <g id="AVF_LP_1-Copy-17" transform="translate(-725.000000, -96.000000)" fill="#FFFFFF">
            <g id="Group-3-Copy" transform="translate(725.000000, 96.000000)">
                <path d="M32.9257981,38.1889585 L12.8483511,38.1889585 L7.62396247,49.5008537 L0,49.5008537 L23.2060053,0 L45.591903,49.5008537 L37.8464432,49.5008537 L32.9257981,38.1889585 Z M30.0402346,31.5828116 L23.0845079,15.7461582 L15.7946633,31.5828116 L30.0402346,31.5828116 Z M72.4983274,9.53215709 L72.4983274,49.5008537 L65.4211033,49.5008537 L65.4211033,9.53215709 L54.6382082,9.53215709 L54.6382082,2.92601024 L83.2508482,2.92601024 L83.2508482,9.53215709 L72.4983274,9.53215709 Z M113.225082,9.53215709 L113.225082,49.5008537 L106.147858,49.5008537 L106.147858,9.53215709 L95.364963,9.53215709 L95.364963,2.92601024 L123.977603,2.92601024 L123.977603,9.53215709 L113.225082,9.53215709 Z M156.898149,29.6522482 L171.41709,49.5008537 L162.760399,49.5008537 L149.36531,30.4365396 L148.089587,30.4365396 L148.089587,49.5008537 L141.012363,49.5008537 L141.012363,2.92601024 L149.304561,2.92601024 C155.50096,2.92601024 159.97607,4.08232575 162.730025,6.39499146 C165.767475,8.96908895 167.286178,12.3676511 167.286178,16.5907797 C167.286178,19.8888421 166.334457,22.7243289 164.430989,25.097325 C162.52752,27.4703211 160.016598,28.9886136 156.898149,29.6522482 L156.898149,29.6522482 Z M148.089587,24.3130336 L150.337289,24.3130336 C157.03993,24.3130336 160.3912,21.7691395 160.3912,16.6812749 C160.3912,11.9151725 157.131052,9.53215709 150.610658,9.53215709 L148.089587,9.53215709 L148.089587,24.3130336 Z M216.730372,38.1889585 L196.652925,38.1889585 L191.428536,49.5008537 L183.804574,49.5008537 L207.010579,0 L229.396477,49.5008537 L221.651017,49.5008537 L216.730372,38.1889585 Z M213.844808,31.5828116 L206.889081,15.7461582 L199.599237,31.5828116 L213.844808,31.5828116 Z M278.445804,5.42970973 L278.445804,13.7552647 C274.355371,10.3566516 270.123253,8.65737052 265.749325,8.65737052 C260.929903,8.65737052 256.869905,10.3767614 253.569209,13.8155948 C250.248263,17.234318 248.587815,21.4171637 248.587815,26.3642573 C248.587815,31.2510204 250.248263,35.3735366 253.569209,38.7319294 C256.890155,42.0903222 260.960278,43.7694935 265.779699,43.7694935 C268.270408,43.7694935 270.386467,43.3672968 272.127939,42.5628913 C273.099923,42.1606886 274.107329,41.617723 275.150187,40.9339784 C276.193045,40.2502337 277.291573,39.4257305 278.445804,38.4604439 L278.445804,46.9368241 C274.39587,49.2092696 270.143503,50.3454752 265.688576,50.3454752 C258.985935,50.3454752 253.265489,48.0227893 248.527067,43.3773478 C243.808894,38.6916859 241.449843,33.0408223 241.449843,26.4245874 C241.449843,20.4920971 243.424156,15.2032105 247.372841,10.5577689 C252.232762,4.86660027 258.52019,2.02105862 266.235314,2.02105862 C270.447246,2.02105862 274.517368,3.1572643 278.445804,5.42970973 L278.445804,5.42970973 Z M311.032232,9.53215709 L311.032232,49.5008537 L303.955008,49.5008537 L303.955008,9.53215709 L293.172113,9.53215709 L293.172113,2.92601024 L321.784753,2.92601024 L321.784753,9.53215709 L311.032232,9.53215709 Z M345.896737,2.92601024 L345.896737,49.5008537 L338.819513,49.5008537 L338.819513,2.92601024 L345.896737,2.92601024 Z M400.165201,2.92601024 L413.13505,35.2026181 L426.287144,2.92601024 L434.032604,2.92601024 L412.983178,53 L392.419741,2.92601024 L400.165201,2.92601024 Z M474,9.53215709 L457.658598,9.53215709 L457.658598,20.7233921 L473.422887,20.7233921 L473.422887,27.329539 L457.658598,27.329539 L457.658598,49.5008537 L450.581374,49.5008537 L450.581374,2.92601024 L474,2.92601024 L474,9.53215709 Z" id="ATTRACTI-VF"></path>
            </g>
        </g>
    </g>
</svg>