<?xml version="1.0" encoding="UTF-8" standalone="no"?>
<svg width="188px" height="21px" viewBox="0 0 188 21" version="1.1" xmlns="http://www.w3.org/2000/svg" xmlns:xlink="http://www.w3.org/1999/xlink">
    <!-- Generator: Sketch 3.8.3 (29802) - http://www.bohemiancoding.com/sketch -->
    <title>ATTRACTI VF Copy</title>
    <desc>Created with Sketch.</desc>
    <defs></defs>
    <g id="Page-1" stroke="none" stroke-width="1" fill="none" fill-rule="evenodd">
        <g id="Artboard-3" transform="translate(-59.000000, -94.000000)" fill="#000000">
            <path d="M72.0528693,109.157534 L64.093509,109.157534 L62.0223895,113.647324 L59,113.647324 L68.1996237,94 L77.0741299,113.647324 L74.0035749,113.647324 L72.0528693,109.157534 Z M70.908937,106.535496 L68.1514582,100.249789 L65.261524,106.535496 L70.908937,106.535496 Z M87.7407215,97.783397 L87.7407215,113.647324 L84.9350771,113.647324 L84.9350771,97.783397 L80.6603828,97.783397 L80.6603828,95.1613592 L92.0033744,95.1613592 L92.0033744,97.783397 L87.7407215,97.783397 Z M103.886147,97.783397 L103.886147,113.647324 L101.080502,113.647324 L101.080502,97.783397 L96.8058079,97.783397 L96.8058079,95.1613592 L108.1488,95.1613592 L108.1488,97.783397 L103.886147,97.783397 Z M121.199587,105.769238 L126.955372,113.647324 L123.523576,113.647324 L118.213321,106.08053 L117.707583,106.08053 L117.707583,113.647324 L114.901939,113.647324 L114.901939,95.1613592 L118.189239,95.1613592 C120.645695,95.1613592 122.419776,95.620311 123.511534,96.5382284 C124.715679,97.5599103 125.317743,98.9088295 125.317743,100.585026 C125.317743,101.894056 124.94045,103.019486 124.185852,103.961349 C123.431254,104.903212 122.435843,105.505836 121.199587,105.769238 L121.199587,105.769238 Z M117.707583,103.650057 L118.598646,103.650057 C121.255793,103.650057 122.584347,102.640363 122.584347,100.620945 C122.584347,98.7292368 121.291917,97.783397 118.707019,97.783397 L117.707583,97.783397 L117.707583,103.650057 Z M144.919048,109.157534 L136.959687,109.157534 L134.888568,113.647324 L131.866178,113.647324 L141.065802,94 L149.940308,113.647324 L146.869753,113.647324 L144.919048,109.157534 Z M143.775115,106.535496 L141.017637,100.249789 L138.127702,106.535496 L143.775115,106.535496 Z M169.385075,96.1550996 L169.385075,99.4595856 C167.763493,98.1106462 166.085742,97.4361865 164.351773,97.4361865 C162.441196,97.4361865 160.831679,98.1186279 159.523175,99.4835311 C158.206642,100.840452 157.548386,102.500661 157.548386,104.464206 C157.548386,106.403805 158.206642,108.040068 159.523175,109.373044 C160.839707,110.706019 162.453237,111.372497 164.363814,111.372497 C165.351213,111.372497 166.190089,111.212862 166.880465,110.893586 C167.265792,110.733948 167.665161,110.518441 168.078584,110.247056 C168.492007,109.975672 168.9275,109.648419 169.385075,109.265289 L169.385075,112.629639 C167.779548,113.531592 166.09377,113.982562 164.32769,113.982562 C161.670543,113.982562 159.40277,113.060668 157.524303,111.216851 C155.653864,109.357071 154.718659,107.114193 154.718659,104.488151 C154.718659,102.133494 155.501342,100.034288 157.066731,98.1904714 C158.993363,95.9315965 161.485906,94.802176 164.544435,94.802176 C166.214183,94.802176 167.827714,95.253146 169.385075,96.1550996 L169.385075,96.1550996 Z M182.303407,97.783397 L182.303407,113.647324 L179.497762,113.647324 L179.497762,97.783397 L175.223068,97.783397 L175.223068,95.1613592 L186.56606,95.1613592 L186.56606,97.783397 L182.303407,97.783397 Z M196.124843,95.1613592 L196.124843,113.647324 L193.319199,113.647324 L193.319199,95.1613592 L196.124843,95.1613592 Z M217.638647,95.1613592 L222.780322,107.972229 L227.994245,95.1613592 L231.0648,95.1613592 L222.720115,115.036166 L214.568092,95.1613592 L217.638647,95.1613592 Z M246.90919,97.783397 L240.430921,97.783397 L240.430921,102.225297 L246.680404,102.225297 L246.680404,104.847335 L240.430921,104.847335 L240.430921,113.647324 L237.625277,113.647324 L237.625277,95.1613592 L246.90919,95.1613592 L246.90919,97.783397 Z" id="ATTRACTI-VF-Copy"></path>
        </g>
    </g>
</svg>