<?xml version="1.0" encoding="UTF-8" standalone="no"?>
<svg width="89px" height="14px" viewBox="0 0 89 14" version="1.1" xmlns="http://www.w3.org/2000/svg" xmlns:xlink="http://www.w3.org/1999/xlink">
    <!-- Generator: Sketch 3.8.3 (29802) - http://www.bohemiancoding.com/sketch -->
    <title>Switzerland Copy</title>
    <desc>Created with Sketch.</desc>
    <defs></defs>
    <g id="Page-1" stroke="none" stroke-width="1" fill="none" fill-rule="evenodd" opacity="0.703917572">
        <g id="AVF_LP_1-Copy-17" transform="translate(-915.000000, -181.000000)" fill="#FFFFFF">
            <g id="Group-3-Copy" transform="translate(725.000000, 96.000000)">
                <path d="M198.265625,87.671875 L197.070312,88.8125 C196.502601,87.9791625 195.851566,87.5625 195.117188,87.5625 C194.585935,87.5625 194.145835,87.7265609 193.796875,88.0546875 C193.447915,88.3828141 193.273438,88.7942684 193.273438,89.2890625 C193.273438,89.6848978 193.393228,90.0260402 193.632812,90.3125 C193.752605,90.4479173 193.928384,90.6015616 194.160156,90.7734375 C194.391928,90.9453134 194.68229,91.1354156 195.03125,91.34375 C196.067714,91.9479197 196.760415,92.4947892 197.109375,92.984375 C197.463543,93.4791691 197.640625,94.1276002 197.640625,94.9296875 C197.640625,95.9713594 197.296878,96.8151009 196.609375,97.4609375 C195.932288,98.1067741 195.039068,98.4296875 193.929688,98.4296875 C193.03385,98.4296875 192.276045,98.2369811 191.65625,97.8515625 C191.343748,97.6588532 191.052085,97.4075536 190.78125,97.0976562 C190.510415,96.7877589 190.250001,96.4114605 190,95.96875 L191.359375,95.046875 C191.729169,95.6979199 192.091144,96.1458321 192.445312,96.390625 C192.799481,96.6354179 193.260414,96.7578125 193.828125,96.7578125 C194.458336,96.7578125 194.951821,96.5911475 195.308594,96.2578125 C195.665366,95.9244775 195.84375,95.4505239 195.84375,94.8359375 C195.84375,94.4140604 195.713543,94.0572931 195.453125,93.765625 C195.322916,93.6145826 195.128908,93.4453134 194.871094,93.2578125 C194.61328,93.0703116 194.28646,92.8593762 193.890625,92.625 C192.98437,92.088539 192.351564,91.5781274 191.992188,91.09375 C191.648436,90.6093726 191.476562,90.0026078 191.476562,89.2734375 C191.476562,88.2994743 191.815101,87.4921907 192.492188,86.8515625 C193.169274,86.2057259 194.023432,85.8828125 195.054688,85.8828125 C195.726566,85.8828125 196.299477,86.0182278 196.773438,86.2890625 C197.257815,86.5598972 197.755206,87.0208301 198.265625,87.671875 L198.265625,87.671875 Z M210.737516,90.8359375 L206.003141,98.96875 L204.518766,94.21875 L201.885954,98.96875 L199.214079,90.8359375 L201.034391,90.8359375 L202.331266,95.328125 L204.956266,90.6328125 L206.362516,95.328125 L208.776579,90.8359375 L210.737516,90.8359375 Z M214.68597,87.3359375 C214.68597,87.5859388 214.594825,87.8020824 214.412533,87.984375 C214.23024,88.1666676 214.011492,88.2578125 213.756283,88.2578125 C213.501073,88.2578125 213.279721,88.1640634 213.09222,87.9765625 C212.909928,87.7786448 212.818783,87.5520846 212.818783,87.296875 C212.818783,87.0416654 212.907324,86.8255217 213.084408,86.6484375 C213.2667,86.4661449 213.482844,86.375 213.732845,86.375 C213.988055,86.375 214.209407,86.4713532 214.396908,86.6640625 C214.589617,86.8515634 214.68597,87.0755195 214.68597,87.3359375 L214.68597,87.3359375 Z M214.146908,90.8359375 L213.240658,98.1953125 L211.514095,98.1953125 L212.420345,90.8359375 L214.146908,90.8359375 Z M218.571924,92.4375 L217.860987,98.1953125 L216.134424,98.1953125 L216.845362,92.4375 L215.868799,92.4375 L216.064112,90.8359375 L217.040674,90.8359375 L217.462549,87.421875 L219.189112,87.421875 L218.767237,90.8359375 L220.360987,90.8359375 L220.165674,92.4375 L218.571924,92.4375 Z M227.989128,96.59375 L227.793816,98.1953125 L220.231316,98.1953125 L225.161003,92.4375 L221.465691,92.4375 L221.661003,90.8359375 L228.598503,90.8359375 L223.637566,96.59375 L227.989128,96.59375 Z M231.500082,95.1328125 C231.500082,95.6744819 231.68758,96.1197899 232.062582,96.46875 C232.442792,96.8177101 232.927163,96.9921875 233.515707,96.9921875 C234.323003,96.9921875 234.942788,96.6901072 235.375082,96.0859375 L236.664145,96.796875 C236.216226,97.4010447 235.755293,97.8229155 235.281332,98.0625 C234.802163,98.3072929 234.203211,98.4296875 233.484457,98.4296875 C232.343826,98.4296875 231.434981,98.0937534 230.757895,97.421875 C230.080808,96.7499966 229.74227,95.8515681 229.74227,94.7265625 C229.74227,93.5494733 230.114662,92.5651081 230.859457,91.7734375 C231.599044,90.9869752 232.533931,90.59375 233.664145,90.59375 C234.7579,90.59375 235.619871,90.9479131 236.250082,91.65625 C236.89071,92.3697952 237.21102,93.3255148 237.21102,94.5234375 C237.21102,94.6484381 237.203207,94.8515611 237.187582,95.1328125 L231.500082,95.1328125 Z M235.46102,93.7421875 C235.278727,92.6067652 234.651129,92.0390625 233.578207,92.0390625 C232.562577,92.0390625 231.901125,92.6067652 231.593832,93.7421875 L235.46102,93.7421875 Z M241.706349,90.8359375 L241.628224,91.46875 C242.21156,90.9166639 242.800096,90.640625 243.393849,90.640625 C243.914685,90.640625 244.388638,90.8307273 244.815724,91.2109375 L243.714161,92.6328125 C243.396451,92.3619778 243.078746,92.2265625 242.761036,92.2265625 C242.542285,92.2265625 242.349579,92.2695308 242.182911,92.3554688 C242.016244,92.4414067 241.871714,92.576822 241.749317,92.7617188 C241.626921,92.9466155 241.525359,93.1848944 241.44463,93.4765625 C241.3639,93.7682306 241.300099,94.1171855 241.253224,94.5234375 L240.800099,98.1953125 L239.073536,98.1953125 L239.979786,90.8359375 L241.706349,90.8359375 Z M249.05324,85 L247.436053,98.1953125 L245.70949,98.1953125 L247.33449,85 L249.05324,85 Z M258.337631,90.8359375 L257.431381,98.1953125 L255.704819,98.1953125 L255.806381,97.3984375 C255.066794,98.0442741 254.301177,98.3671875 253.509506,98.3671875 C252.535543,98.3671875 251.74128,98.0364616 251.126694,97.375 C250.512108,96.7135384 250.204819,95.8567761 250.204819,94.8046875 C250.204819,93.5911398 250.556378,92.596358 251.259506,91.8203125 C251.973052,91.044267 252.887105,90.65625 254.001694,90.65625 C254.527738,90.65625 254.97565,90.7421866 255.345444,90.9140625 C255.720446,91.0859384 256.103255,91.3828104 256.493881,91.8046875 L256.611069,90.8359375 L258.337631,90.8359375 Z M256.236069,94.3046875 C256.236069,93.6536426 256.048571,93.125002 255.673569,92.71875 C255.298567,92.3072896 254.814197,92.1015625 254.220444,92.1015625 C253.574607,92.1015625 253.032946,92.3541641 252.595444,92.859375 C252.157942,93.3697942 251.939194,93.994788 251.939194,94.734375 C251.939194,95.3802116 252.121484,95.9088521 252.486069,96.3203125 C252.850654,96.7317729 253.319399,96.9375 253.892319,96.9375 C254.527739,96.9375 255.077212,96.6796901 255.540756,96.1640625 C256.0043,95.6380182 256.236069,95.0182327 256.236069,94.3046875 L256.236069,94.3046875 Z M262.83296,90.8359375 L262.754835,91.515625 C263.43713,90.9427055 264.127228,90.65625 264.825148,90.65625 C265.543901,90.65625 266.119417,90.8567688 266.55171,91.2578125 C266.973588,91.6588562 267.184523,92.2057257 267.184523,92.8984375 C267.184523,93.2734394 267.153273,93.7213516 267.090773,94.2421875 L266.598585,98.1953125 L264.879835,98.1953125 L265.411085,93.8671875 C265.431919,93.7057284 265.446242,93.5625006 265.454054,93.4375 C265.461867,93.3124994 265.465773,93.2005213 265.465773,93.1015625 C265.465773,92.4348925 265.106401,92.1015625 264.387648,92.1015625 C263.944937,92.1015625 263.564733,92.2369778 263.247023,92.5078125 C262.986605,92.7213552 262.793899,92.9817693 262.668898,93.2890625 C262.601189,93.4453133 262.543898,93.6367176 262.497023,93.8632812 C262.450148,94.0898449 262.408481,94.351561 262.372023,94.6484375 L261.934523,98.1953125 L260.20796,98.1953125 L261.11421,90.8359375 L262.83296,90.8359375 Z M278.406414,85 L276.781414,98.1953125 L275.062664,98.1953125 L275.156414,97.40625 C274.729329,97.7864602 274.359541,98.0442702 274.047039,98.1796875 C273.739746,98.3046881 273.359542,98.3671875 272.906414,98.3671875 C271.875159,98.3671875 271.031418,98.0260451 270.375164,97.34375 C269.718911,96.6562466 269.390789,95.7708387 269.390789,94.6875 C269.390789,93.5312442 269.750161,92.5703163 270.468914,91.8046875 C271.187668,91.0390587 272.091305,90.65625 273.179852,90.65625 C273.737146,90.65625 274.205892,90.7526032 274.586102,90.9453125 C274.981937,91.1432302 275.395996,91.4791643 275.828289,91.953125 L276.679852,85 L278.406414,85 Z M275.562664,94.1953125 C275.562664,93.5703094 275.369958,93.0651061 274.984539,92.6796875 C274.599121,92.2942689 274.093917,92.1015625 273.468914,92.1015625 C272.791828,92.1015625 272.231937,92.3541641 271.789227,92.859375 C271.346516,93.3645859 271.125164,94.0026003 271.125164,94.7734375 C271.125164,95.4244824 271.315267,95.9479147 271.695477,96.34375 C272.075687,96.734377 272.58089,96.9296875 273.211102,96.9296875 C273.867355,96.9296875 274.422037,96.6640652 274.875164,96.1328125 C275.3335,95.6119766 275.562664,94.9661497 275.562664,94.1953125 L275.562664,94.1953125 Z" id="Switzerland-Copy"></path>
            </g>
        </g>
    </g>
</svg>